<mxfile host="app.diagrams.net" modified="2020-08-28T12:08:59.224Z" agent="5.0 (X11; Linux x86_64) AppleWebKit/537.36 (KHTML, like Gecko) Chrome/60.0.3112.78 Safari/537.36" etag="a6Vbkd070i9gHzTCxYs9" version="13.6.5" type="github">
  <diagram id="_NM0zyQpCWJzvZTSbSd0" name="Page-1">
    <mxGraphModel dx="813" dy="476" grid="1" gridSize="10" guides="1" tooltips="1" connect="1" arrows="1" fold="1" page="1" pageScale="1" pageWidth="850" pageHeight="1100" math="0" shadow="0">
      <root>
        <mxCell id="0" />
        <mxCell id="1" parent="0" />
        <mxCell id="YDswF3tkXrE5sghVOHDw-1" value="tblPibCon" style="shape=table;startSize=30;container=1;collapsible=1;childLayout=tableLayout;fixedRows=1;rowLines=0;fontStyle=1;align=center;resizeLast=1;" vertex="1" parent="1">
          <mxGeometry x="40" y="40" width="160" height="160" as="geometry" />
        </mxCell>
        <mxCell id="YDswF3tkXrE5sghVOHDw-2" value="" style="shape=partialRectangle;collapsible=0;dropTarget=0;pointerEvents=0;fillColor=none;top=0;left=0;bottom=1;right=0;points=[[0,0.5],[1,0.5]];portConstraint=eastwest;" vertex="1" parent="YDswF3tkXrE5sghVOHDw-1">
          <mxGeometry y="30" width="160" height="30" as="geometry" />
        </mxCell>
        <mxCell id="YDswF3tkXrE5sghVOHDw-3" value="PK" style="shape=partialRectangle;connectable=0;fillColor=none;top=0;left=0;bottom=0;right=0;fontStyle=1;overflow=hidden;" vertex="1" parent="YDswF3tkXrE5sghVOHDw-2">
          <mxGeometry width="30" height="30" as="geometry" />
        </mxCell>
        <mxCell id="YDswF3tkXrE5sghVOHDw-4" value="CAR" style="shape=partialRectangle;connectable=0;fillColor=none;top=0;left=0;bottom=0;right=0;align=left;spacingLeft=6;fontStyle=5;overflow=hidden;" vertex="1" parent="YDswF3tkXrE5sghVOHDw-2">
          <mxGeometry x="30" width="130" height="30" as="geometry" />
        </mxCell>
        <mxCell id="YDswF3tkXrE5sghVOHDw-8" value="" style="shape=partialRectangle;collapsible=0;dropTarget=0;pointerEvents=0;fillColor=none;top=0;left=0;bottom=0;right=0;points=[[0,0.5],[1,0.5]];portConstraint=eastwest;" vertex="1" parent="YDswF3tkXrE5sghVOHDw-1">
          <mxGeometry y="60" width="160" height="30" as="geometry" />
        </mxCell>
        <mxCell id="YDswF3tkXrE5sghVOHDw-9" value="" style="shape=partialRectangle;connectable=0;fillColor=none;top=0;left=0;bottom=0;right=0;editable=1;overflow=hidden;" vertex="1" parent="YDswF3tkXrE5sghVOHDw-8">
          <mxGeometry width="30" height="30" as="geometry" />
        </mxCell>
        <mxCell id="YDswF3tkXrE5sghVOHDw-10" value="ContNo" style="shape=partialRectangle;connectable=0;fillColor=none;top=0;left=0;bottom=0;right=0;align=left;spacingLeft=6;overflow=hidden;" vertex="1" parent="YDswF3tkXrE5sghVOHDw-8">
          <mxGeometry x="30" width="130" height="30" as="geometry" />
        </mxCell>
        <mxCell id="YDswF3tkXrE5sghVOHDw-11" value="" style="shape=partialRectangle;collapsible=0;dropTarget=0;pointerEvents=0;fillColor=none;top=0;left=0;bottom=0;right=0;points=[[0,0.5],[1,0.5]];portConstraint=eastwest;" vertex="1" parent="YDswF3tkXrE5sghVOHDw-1">
          <mxGeometry y="90" width="160" height="30" as="geometry" />
        </mxCell>
        <mxCell id="YDswF3tkXrE5sghVOHDw-12" value="" style="shape=partialRectangle;connectable=0;fillColor=none;top=0;left=0;bottom=0;right=0;editable=1;overflow=hidden;" vertex="1" parent="YDswF3tkXrE5sghVOHDw-11">
          <mxGeometry width="30" height="30" as="geometry" />
        </mxCell>
        <mxCell id="YDswF3tkXrE5sghVOHDw-13" value="ContUkur" style="shape=partialRectangle;connectable=0;fillColor=none;top=0;left=0;bottom=0;right=0;align=left;spacingLeft=6;overflow=hidden;" vertex="1" parent="YDswF3tkXrE5sghVOHDw-11">
          <mxGeometry x="30" width="130" height="30" as="geometry" />
        </mxCell>
        <mxCell id="YDswF3tkXrE5sghVOHDw-17" value="" style="shape=partialRectangle;collapsible=0;dropTarget=0;pointerEvents=0;fillColor=none;top=0;left=0;bottom=0;right=0;points=[[0,0.5],[1,0.5]];portConstraint=eastwest;" vertex="1" parent="YDswF3tkXrE5sghVOHDw-1">
          <mxGeometry y="120" width="160" height="30" as="geometry" />
        </mxCell>
        <mxCell id="YDswF3tkXrE5sghVOHDw-18" value="" style="shape=partialRectangle;connectable=0;fillColor=none;top=0;left=0;bottom=0;right=0;editable=1;overflow=hidden;" vertex="1" parent="YDswF3tkXrE5sghVOHDw-17">
          <mxGeometry width="30" height="30" as="geometry" />
        </mxCell>
        <mxCell id="YDswF3tkXrE5sghVOHDw-19" value="ContTipe" style="shape=partialRectangle;connectable=0;fillColor=none;top=0;left=0;bottom=0;right=0;align=left;spacingLeft=6;overflow=hidden;" vertex="1" parent="YDswF3tkXrE5sghVOHDw-17">
          <mxGeometry x="30" width="130" height="30" as="geometry" />
        </mxCell>
        <mxCell id="YDswF3tkXrE5sghVOHDw-23" value="tblPibConR" style="shape=table;startSize=30;container=1;collapsible=1;childLayout=tableLayout;fixedRows=1;rowLines=0;fontStyle=1;align=center;resizeLast=1;" vertex="1" parent="1">
          <mxGeometry x="280" y="40" width="160" height="190" as="geometry" />
        </mxCell>
        <mxCell id="YDswF3tkXrE5sghVOHDw-24" value="" style="shape=partialRectangle;collapsible=0;dropTarget=0;pointerEvents=0;fillColor=none;top=0;left=0;bottom=1;right=0;points=[[0,0.5],[1,0.5]];portConstraint=eastwest;" vertex="1" parent="YDswF3tkXrE5sghVOHDw-23">
          <mxGeometry y="30" width="160" height="30" as="geometry" />
        </mxCell>
        <mxCell id="YDswF3tkXrE5sghVOHDw-25" value="PK" style="shape=partialRectangle;connectable=0;fillColor=none;top=0;left=0;bottom=0;right=0;fontStyle=1;overflow=hidden;" vertex="1" parent="YDswF3tkXrE5sghVOHDw-24">
          <mxGeometry width="30" height="30" as="geometry" />
        </mxCell>
        <mxCell id="YDswF3tkXrE5sghVOHDw-26" value="CAR" style="shape=partialRectangle;connectable=0;fillColor=none;top=0;left=0;bottom=0;right=0;align=left;spacingLeft=6;fontStyle=5;overflow=hidden;" vertex="1" parent="YDswF3tkXrE5sghVOHDw-24">
          <mxGeometry x="30" width="130" height="30" as="geometry" />
        </mxCell>
        <mxCell id="YDswF3tkXrE5sghVOHDw-27" value="" style="shape=partialRectangle;collapsible=0;dropTarget=0;pointerEvents=0;fillColor=none;top=0;left=0;bottom=0;right=0;points=[[0,0.5],[1,0.5]];portConstraint=eastwest;" vertex="1" parent="YDswF3tkXrE5sghVOHDw-23">
          <mxGeometry y="60" width="160" height="30" as="geometry" />
        </mxCell>
        <mxCell id="YDswF3tkXrE5sghVOHDw-28" value="" style="shape=partialRectangle;connectable=0;fillColor=none;top=0;left=0;bottom=0;right=0;editable=1;overflow=hidden;" vertex="1" parent="YDswF3tkXrE5sghVOHDw-27">
          <mxGeometry width="30" height="30" as="geometry" />
        </mxCell>
        <mxCell id="YDswF3tkXrE5sghVOHDw-29" value="ResKd" style="shape=partialRectangle;connectable=0;fillColor=none;top=0;left=0;bottom=0;right=0;align=left;spacingLeft=6;overflow=hidden;" vertex="1" parent="YDswF3tkXrE5sghVOHDw-27">
          <mxGeometry x="30" width="130" height="30" as="geometry" />
        </mxCell>
        <mxCell id="YDswF3tkXrE5sghVOHDw-30" value="" style="shape=partialRectangle;collapsible=0;dropTarget=0;pointerEvents=0;fillColor=none;top=0;left=0;bottom=0;right=0;points=[[0,0.5],[1,0.5]];portConstraint=eastwest;" vertex="1" parent="YDswF3tkXrE5sghVOHDw-23">
          <mxGeometry y="90" width="160" height="30" as="geometry" />
        </mxCell>
        <mxCell id="YDswF3tkXrE5sghVOHDw-31" value="" style="shape=partialRectangle;connectable=0;fillColor=none;top=0;left=0;bottom=0;right=0;editable=1;overflow=hidden;" vertex="1" parent="YDswF3tkXrE5sghVOHDw-30">
          <mxGeometry width="30" height="30" as="geometry" />
        </mxCell>
        <mxCell id="YDswF3tkXrE5sghVOHDw-32" value="CONTNO" style="shape=partialRectangle;connectable=0;fillColor=none;top=0;left=0;bottom=0;right=0;align=left;spacingLeft=6;overflow=hidden;" vertex="1" parent="YDswF3tkXrE5sghVOHDw-30">
          <mxGeometry x="30" width="130" height="30" as="geometry" />
        </mxCell>
        <mxCell id="YDswF3tkXrE5sghVOHDw-33" value="" style="shape=partialRectangle;collapsible=0;dropTarget=0;pointerEvents=0;fillColor=none;top=0;left=0;bottom=0;right=0;points=[[0,0.5],[1,0.5]];portConstraint=eastwest;" vertex="1" parent="YDswF3tkXrE5sghVOHDw-23">
          <mxGeometry y="120" width="160" height="30" as="geometry" />
        </mxCell>
        <mxCell id="YDswF3tkXrE5sghVOHDw-34" value="" style="shape=partialRectangle;connectable=0;fillColor=none;top=0;left=0;bottom=0;right=0;editable=1;overflow=hidden;" vertex="1" parent="YDswF3tkXrE5sghVOHDw-33">
          <mxGeometry width="30" height="30" as="geometry" />
        </mxCell>
        <mxCell id="YDswF3tkXrE5sghVOHDw-35" value="CONTUKUR" style="shape=partialRectangle;connectable=0;fillColor=none;top=0;left=0;bottom=0;right=0;align=left;spacingLeft=6;overflow=hidden;" vertex="1" parent="YDswF3tkXrE5sghVOHDw-33">
          <mxGeometry x="30" width="130" height="30" as="geometry" />
        </mxCell>
        <mxCell id="YDswF3tkXrE5sghVOHDw-36" value="" style="shape=partialRectangle;collapsible=0;dropTarget=0;pointerEvents=0;fillColor=none;top=0;left=0;bottom=0;right=0;points=[[0,0.5],[1,0.5]];portConstraint=eastwest;" vertex="1" parent="YDswF3tkXrE5sghVOHDw-23">
          <mxGeometry y="150" width="160" height="30" as="geometry" />
        </mxCell>
        <mxCell id="YDswF3tkXrE5sghVOHDw-37" value="" style="shape=partialRectangle;connectable=0;fillColor=none;top=0;left=0;bottom=0;right=0;editable=1;overflow=hidden;" vertex="1" parent="YDswF3tkXrE5sghVOHDw-36">
          <mxGeometry width="30" height="30" as="geometry" />
        </mxCell>
        <mxCell id="YDswF3tkXrE5sghVOHDw-38" value="CONTTIPE" style="shape=partialRectangle;connectable=0;fillColor=none;top=0;left=0;bottom=0;right=0;align=left;spacingLeft=6;overflow=hidden;" vertex="1" parent="YDswF3tkXrE5sghVOHDw-36">
          <mxGeometry x="30" width="130" height="30" as="geometry" />
        </mxCell>
        <mxCell id="YDswF3tkXrE5sghVOHDw-42" value="tblPibDok" style="shape=table;startSize=30;container=1;collapsible=1;childLayout=tableLayout;fixedRows=1;rowLines=0;fontStyle=1;align=center;resizeLast=1;" vertex="1" parent="1">
          <mxGeometry x="520" y="40" width="160" height="250" as="geometry" />
        </mxCell>
        <mxCell id="YDswF3tkXrE5sghVOHDw-43" value="" style="shape=partialRectangle;collapsible=0;dropTarget=0;pointerEvents=0;fillColor=none;top=0;left=0;bottom=1;right=0;points=[[0,0.5],[1,0.5]];portConstraint=eastwest;" vertex="1" parent="YDswF3tkXrE5sghVOHDw-42">
          <mxGeometry y="30" width="160" height="30" as="geometry" />
        </mxCell>
        <mxCell id="YDswF3tkXrE5sghVOHDw-44" value="PK" style="shape=partialRectangle;connectable=0;fillColor=none;top=0;left=0;bottom=0;right=0;fontStyle=1;overflow=hidden;" vertex="1" parent="YDswF3tkXrE5sghVOHDw-43">
          <mxGeometry width="30" height="30" as="geometry" />
        </mxCell>
        <mxCell id="YDswF3tkXrE5sghVOHDw-45" value="CAR" style="shape=partialRectangle;connectable=0;fillColor=none;top=0;left=0;bottom=0;right=0;align=left;spacingLeft=6;fontStyle=5;overflow=hidden;" vertex="1" parent="YDswF3tkXrE5sghVOHDw-43">
          <mxGeometry x="30" width="130" height="30" as="geometry" />
        </mxCell>
        <mxCell id="YDswF3tkXrE5sghVOHDw-46" value="" style="shape=partialRectangle;collapsible=0;dropTarget=0;pointerEvents=0;fillColor=none;top=0;left=0;bottom=0;right=0;points=[[0,0.5],[1,0.5]];portConstraint=eastwest;" vertex="1" parent="YDswF3tkXrE5sghVOHDw-42">
          <mxGeometry y="60" width="160" height="30" as="geometry" />
        </mxCell>
        <mxCell id="YDswF3tkXrE5sghVOHDw-47" value="" style="shape=partialRectangle;connectable=0;fillColor=none;top=0;left=0;bottom=0;right=0;editable=1;overflow=hidden;" vertex="1" parent="YDswF3tkXrE5sghVOHDw-46">
          <mxGeometry width="30" height="30" as="geometry" />
        </mxCell>
        <mxCell id="YDswF3tkXrE5sghVOHDw-48" value="DokKd" style="shape=partialRectangle;connectable=0;fillColor=none;top=0;left=0;bottom=0;right=0;align=left;spacingLeft=6;overflow=hidden;" vertex="1" parent="YDswF3tkXrE5sghVOHDw-46">
          <mxGeometry x="30" width="130" height="30" as="geometry" />
        </mxCell>
        <mxCell id="YDswF3tkXrE5sghVOHDw-49" value="" style="shape=partialRectangle;collapsible=0;dropTarget=0;pointerEvents=0;fillColor=none;top=0;left=0;bottom=0;right=0;points=[[0,0.5],[1,0.5]];portConstraint=eastwest;" vertex="1" parent="YDswF3tkXrE5sghVOHDw-42">
          <mxGeometry y="90" width="160" height="30" as="geometry" />
        </mxCell>
        <mxCell id="YDswF3tkXrE5sghVOHDw-50" value="" style="shape=partialRectangle;connectable=0;fillColor=none;top=0;left=0;bottom=0;right=0;editable=1;overflow=hidden;" vertex="1" parent="YDswF3tkXrE5sghVOHDw-49">
          <mxGeometry width="30" height="30" as="geometry" />
        </mxCell>
        <mxCell id="YDswF3tkXrE5sghVOHDw-51" value="DokNo" style="shape=partialRectangle;connectable=0;fillColor=none;top=0;left=0;bottom=0;right=0;align=left;spacingLeft=6;overflow=hidden;" vertex="1" parent="YDswF3tkXrE5sghVOHDw-49">
          <mxGeometry x="30" width="130" height="30" as="geometry" />
        </mxCell>
        <mxCell id="YDswF3tkXrE5sghVOHDw-52" value="" style="shape=partialRectangle;collapsible=0;dropTarget=0;pointerEvents=0;fillColor=none;top=0;left=0;bottom=0;right=0;points=[[0,0.5],[1,0.5]];portConstraint=eastwest;" vertex="1" parent="YDswF3tkXrE5sghVOHDw-42">
          <mxGeometry y="120" width="160" height="30" as="geometry" />
        </mxCell>
        <mxCell id="YDswF3tkXrE5sghVOHDw-53" value="" style="shape=partialRectangle;connectable=0;fillColor=none;top=0;left=0;bottom=0;right=0;editable=1;overflow=hidden;" vertex="1" parent="YDswF3tkXrE5sghVOHDw-52">
          <mxGeometry width="30" height="30" as="geometry" />
        </mxCell>
        <mxCell id="YDswF3tkXrE5sghVOHDw-54" value="DokTg" style="shape=partialRectangle;connectable=0;fillColor=none;top=0;left=0;bottom=0;right=0;align=left;spacingLeft=6;overflow=hidden;" vertex="1" parent="YDswF3tkXrE5sghVOHDw-52">
          <mxGeometry x="30" width="130" height="30" as="geometry" />
        </mxCell>
        <mxCell id="YDswF3tkXrE5sghVOHDw-55" value="" style="shape=partialRectangle;collapsible=0;dropTarget=0;pointerEvents=0;fillColor=none;top=0;left=0;bottom=0;right=0;points=[[0,0.5],[1,0.5]];portConstraint=eastwest;" vertex="1" parent="YDswF3tkXrE5sghVOHDw-42">
          <mxGeometry y="150" width="160" height="30" as="geometry" />
        </mxCell>
        <mxCell id="YDswF3tkXrE5sghVOHDw-56" value="" style="shape=partialRectangle;connectable=0;fillColor=none;top=0;left=0;bottom=0;right=0;editable=1;overflow=hidden;" vertex="1" parent="YDswF3tkXrE5sghVOHDw-55">
          <mxGeometry width="30" height="30" as="geometry" />
        </mxCell>
        <mxCell id="YDswF3tkXrE5sghVOHDw-57" value="DokInst" style="shape=partialRectangle;connectable=0;fillColor=none;top=0;left=0;bottom=0;right=0;align=left;spacingLeft=6;overflow=hidden;" vertex="1" parent="YDswF3tkXrE5sghVOHDw-55">
          <mxGeometry x="30" width="130" height="30" as="geometry" />
        </mxCell>
        <mxCell id="YDswF3tkXrE5sghVOHDw-58" value="" style="shape=partialRectangle;collapsible=0;dropTarget=0;pointerEvents=0;fillColor=none;top=0;left=0;bottom=0;right=0;points=[[0,0.5],[1,0.5]];portConstraint=eastwest;" vertex="1" parent="YDswF3tkXrE5sghVOHDw-42">
          <mxGeometry y="180" width="160" height="30" as="geometry" />
        </mxCell>
        <mxCell id="YDswF3tkXrE5sghVOHDw-59" value="" style="shape=partialRectangle;connectable=0;fillColor=none;top=0;left=0;bottom=0;right=0;editable=1;overflow=hidden;" vertex="1" parent="YDswF3tkXrE5sghVOHDw-58">
          <mxGeometry width="30" height="30" as="geometry" />
        </mxCell>
        <mxCell id="YDswF3tkXrE5sghVOHDw-60" value="NoUrut" style="shape=partialRectangle;connectable=0;fillColor=none;top=0;left=0;bottom=0;right=0;align=left;spacingLeft=6;overflow=hidden;" vertex="1" parent="YDswF3tkXrE5sghVOHDw-58">
          <mxGeometry x="30" width="130" height="30" as="geometry" />
        </mxCell>
        <mxCell id="YDswF3tkXrE5sghVOHDw-61" value="" style="shape=partialRectangle;collapsible=0;dropTarget=0;pointerEvents=0;fillColor=none;top=0;left=0;bottom=0;right=0;points=[[0,0.5],[1,0.5]];portConstraint=eastwest;" vertex="1" parent="YDswF3tkXrE5sghVOHDw-42">
          <mxGeometry y="210" width="160" height="30" as="geometry" />
        </mxCell>
        <mxCell id="YDswF3tkXrE5sghVOHDw-62" value="" style="shape=partialRectangle;connectable=0;fillColor=none;top=0;left=0;bottom=0;right=0;editable=1;overflow=hidden;" vertex="1" parent="YDswF3tkXrE5sghVOHDw-61">
          <mxGeometry width="30" height="30" as="geometry" />
        </mxCell>
        <mxCell id="YDswF3tkXrE5sghVOHDw-63" value="KdGroupDok" style="shape=partialRectangle;connectable=0;fillColor=none;top=0;left=0;bottom=0;right=0;align=left;spacingLeft=6;overflow=hidden;" vertex="1" parent="YDswF3tkXrE5sghVOHDw-61">
          <mxGeometry x="30" width="130" height="30" as="geometry" />
        </mxCell>
        <mxCell id="YDswF3tkXrE5sghVOHDw-64" value="tblPibDok" style="shape=table;startSize=30;container=1;collapsible=1;childLayout=tableLayout;fixedRows=1;rowLines=0;fontStyle=1;align=center;resizeLast=1;" vertex="1" parent="1">
          <mxGeometry x="760" y="40" width="160" height="250" as="geometry" />
        </mxCell>
        <mxCell id="YDswF3tkXrE5sghVOHDw-65" value="" style="shape=partialRectangle;collapsible=0;dropTarget=0;pointerEvents=0;fillColor=none;top=0;left=0;bottom=1;right=0;points=[[0,0.5],[1,0.5]];portConstraint=eastwest;" vertex="1" parent="YDswF3tkXrE5sghVOHDw-64">
          <mxGeometry y="30" width="160" height="30" as="geometry" />
        </mxCell>
        <mxCell id="YDswF3tkXrE5sghVOHDw-66" value="PK" style="shape=partialRectangle;connectable=0;fillColor=none;top=0;left=0;bottom=0;right=0;fontStyle=1;overflow=hidden;" vertex="1" parent="YDswF3tkXrE5sghVOHDw-65">
          <mxGeometry width="30" height="30" as="geometry" />
        </mxCell>
        <mxCell id="YDswF3tkXrE5sghVOHDw-67" value="CAR" style="shape=partialRectangle;connectable=0;fillColor=none;top=0;left=0;bottom=0;right=0;align=left;spacingLeft=6;fontStyle=5;overflow=hidden;" vertex="1" parent="YDswF3tkXrE5sghVOHDw-65">
          <mxGeometry x="30" width="130" height="30" as="geometry" />
        </mxCell>
        <mxCell id="YDswF3tkXrE5sghVOHDw-68" value="" style="shape=partialRectangle;collapsible=0;dropTarget=0;pointerEvents=0;fillColor=none;top=0;left=0;bottom=0;right=0;points=[[0,0.5],[1,0.5]];portConstraint=eastwest;" vertex="1" parent="YDswF3tkXrE5sghVOHDw-64">
          <mxGeometry y="60" width="160" height="30" as="geometry" />
        </mxCell>
        <mxCell id="YDswF3tkXrE5sghVOHDw-69" value="" style="shape=partialRectangle;connectable=0;fillColor=none;top=0;left=0;bottom=0;right=0;editable=1;overflow=hidden;" vertex="1" parent="YDswF3tkXrE5sghVOHDw-68">
          <mxGeometry width="30" height="30" as="geometry" />
        </mxCell>
        <mxCell id="YDswF3tkXrE5sghVOHDw-70" value="DokKd" style="shape=partialRectangle;connectable=0;fillColor=none;top=0;left=0;bottom=0;right=0;align=left;spacingLeft=6;overflow=hidden;" vertex="1" parent="YDswF3tkXrE5sghVOHDw-68">
          <mxGeometry x="30" width="130" height="30" as="geometry" />
        </mxCell>
        <mxCell id="YDswF3tkXrE5sghVOHDw-71" value="" style="shape=partialRectangle;collapsible=0;dropTarget=0;pointerEvents=0;fillColor=none;top=0;left=0;bottom=0;right=0;points=[[0,0.5],[1,0.5]];portConstraint=eastwest;" vertex="1" parent="YDswF3tkXrE5sghVOHDw-64">
          <mxGeometry y="90" width="160" height="30" as="geometry" />
        </mxCell>
        <mxCell id="YDswF3tkXrE5sghVOHDw-72" value="" style="shape=partialRectangle;connectable=0;fillColor=none;top=0;left=0;bottom=0;right=0;editable=1;overflow=hidden;" vertex="1" parent="YDswF3tkXrE5sghVOHDw-71">
          <mxGeometry width="30" height="30" as="geometry" />
        </mxCell>
        <mxCell id="YDswF3tkXrE5sghVOHDw-73" value="DokNo" style="shape=partialRectangle;connectable=0;fillColor=none;top=0;left=0;bottom=0;right=0;align=left;spacingLeft=6;overflow=hidden;" vertex="1" parent="YDswF3tkXrE5sghVOHDw-71">
          <mxGeometry x="30" width="130" height="30" as="geometry" />
        </mxCell>
        <mxCell id="YDswF3tkXrE5sghVOHDw-74" value="" style="shape=partialRectangle;collapsible=0;dropTarget=0;pointerEvents=0;fillColor=none;top=0;left=0;bottom=0;right=0;points=[[0,0.5],[1,0.5]];portConstraint=eastwest;" vertex="1" parent="YDswF3tkXrE5sghVOHDw-64">
          <mxGeometry y="120" width="160" height="30" as="geometry" />
        </mxCell>
        <mxCell id="YDswF3tkXrE5sghVOHDw-75" value="" style="shape=partialRectangle;connectable=0;fillColor=none;top=0;left=0;bottom=0;right=0;editable=1;overflow=hidden;" vertex="1" parent="YDswF3tkXrE5sghVOHDw-74">
          <mxGeometry width="30" height="30" as="geometry" />
        </mxCell>
        <mxCell id="YDswF3tkXrE5sghVOHDw-76" value="DokTg" style="shape=partialRectangle;connectable=0;fillColor=none;top=0;left=0;bottom=0;right=0;align=left;spacingLeft=6;overflow=hidden;" vertex="1" parent="YDswF3tkXrE5sghVOHDw-74">
          <mxGeometry x="30" width="130" height="30" as="geometry" />
        </mxCell>
        <mxCell id="YDswF3tkXrE5sghVOHDw-77" value="" style="shape=partialRectangle;collapsible=0;dropTarget=0;pointerEvents=0;fillColor=none;top=0;left=0;bottom=0;right=0;points=[[0,0.5],[1,0.5]];portConstraint=eastwest;" vertex="1" parent="YDswF3tkXrE5sghVOHDw-64">
          <mxGeometry y="150" width="160" height="30" as="geometry" />
        </mxCell>
        <mxCell id="YDswF3tkXrE5sghVOHDw-78" value="" style="shape=partialRectangle;connectable=0;fillColor=none;top=0;left=0;bottom=0;right=0;editable=1;overflow=hidden;" vertex="1" parent="YDswF3tkXrE5sghVOHDw-77">
          <mxGeometry width="30" height="30" as="geometry" />
        </mxCell>
        <mxCell id="YDswF3tkXrE5sghVOHDw-79" value="DokInst" style="shape=partialRectangle;connectable=0;fillColor=none;top=0;left=0;bottom=0;right=0;align=left;spacingLeft=6;overflow=hidden;" vertex="1" parent="YDswF3tkXrE5sghVOHDw-77">
          <mxGeometry x="30" width="130" height="30" as="geometry" />
        </mxCell>
        <mxCell id="YDswF3tkXrE5sghVOHDw-80" value="" style="shape=partialRectangle;collapsible=0;dropTarget=0;pointerEvents=0;fillColor=none;top=0;left=0;bottom=0;right=0;points=[[0,0.5],[1,0.5]];portConstraint=eastwest;" vertex="1" parent="YDswF3tkXrE5sghVOHDw-64">
          <mxGeometry y="180" width="160" height="30" as="geometry" />
        </mxCell>
        <mxCell id="YDswF3tkXrE5sghVOHDw-81" value="" style="shape=partialRectangle;connectable=0;fillColor=none;top=0;left=0;bottom=0;right=0;editable=1;overflow=hidden;" vertex="1" parent="YDswF3tkXrE5sghVOHDw-80">
          <mxGeometry width="30" height="30" as="geometry" />
        </mxCell>
        <mxCell id="YDswF3tkXrE5sghVOHDw-82" value="NoUrut" style="shape=partialRectangle;connectable=0;fillColor=none;top=0;left=0;bottom=0;right=0;align=left;spacingLeft=6;overflow=hidden;" vertex="1" parent="YDswF3tkXrE5sghVOHDw-80">
          <mxGeometry x="30" width="130" height="30" as="geometry" />
        </mxCell>
        <mxCell id="YDswF3tkXrE5sghVOHDw-83" value="" style="shape=partialRectangle;collapsible=0;dropTarget=0;pointerEvents=0;fillColor=none;top=0;left=0;bottom=0;right=0;points=[[0,0.5],[1,0.5]];portConstraint=eastwest;" vertex="1" parent="YDswF3tkXrE5sghVOHDw-64">
          <mxGeometry y="210" width="160" height="30" as="geometry" />
        </mxCell>
        <mxCell id="YDswF3tkXrE5sghVOHDw-84" value="" style="shape=partialRectangle;connectable=0;fillColor=none;top=0;left=0;bottom=0;right=0;editable=1;overflow=hidden;" vertex="1" parent="YDswF3tkXrE5sghVOHDw-83">
          <mxGeometry width="30" height="30" as="geometry" />
        </mxCell>
        <mxCell id="YDswF3tkXrE5sghVOHDw-85" value="KdGroupDok" style="shape=partialRectangle;connectable=0;fillColor=none;top=0;left=0;bottom=0;right=0;align=left;spacingLeft=6;overflow=hidden;" vertex="1" parent="YDswF3tkXrE5sghVOHDw-83">
          <mxGeometry x="30" width="130" height="30" as="geometry" />
        </mxCell>
      </root>
    </mxGraphModel>
  </diagram>
</mxfile>
